<svg width="116" height="28" viewBox="0 0 116 28" fill="none" xmlns="http://www.w3.org/2000/svg">
<path d="M1.15455 9.89559H5.55218V24.1439H1.15455V9.89559ZM0.802734 5.41C0.802734 4.70638 1.04705 4.11026 1.53567 3.62163C2.04384 3.11346 2.64974 2.85938 3.35336 2.85938C4.05698 2.85938 4.65311 3.11346 5.14173 3.62163C5.64991 4.11026 5.90399 4.70638 5.90399 5.41C5.90399 6.11362 5.64991 6.71952 5.14173 7.22769C4.65311 7.71632 4.05698 7.96063 3.35336 7.96063C2.64974 7.96063 2.04384 7.71632 1.53567 7.22769C1.04705 6.71952 0.802734 6.11362 0.802734 5.41Z" fill="#110C1A"/>
<path d="M8.71161 9.89559H12.9333V11.8306H12.992C13.1288 11.5569 13.3242 11.2833 13.5783 11.0097C13.8324 10.736 14.1354 10.4917 14.4872 10.2767C14.839 10.0617 15.2396 9.88582 15.6892 9.749C16.1387 9.61219 16.6273 9.54378 17.1551 9.54378C18.2691 9.54378 19.1682 9.71969 19.8523 10.0715C20.5364 10.4038 21.0641 10.8728 21.4354 11.4787C21.8263 12.0846 22.0902 12.798 22.227 13.6189C22.3638 14.4398 22.4322 15.3291 22.4322 16.2868V24.1439H18.0346V17.1663C18.0346 16.7559 18.015 16.3357 17.976 15.9057C17.9564 15.4562 17.8685 15.0457 17.7121 14.6744C17.5753 14.303 17.3505 14.0001 17.0378 13.7655C16.7446 13.531 16.3146 13.4137 15.7478 13.4137C15.181 13.4137 14.7217 13.5212 14.3699 13.7362C14.0181 13.9316 13.7445 14.2053 13.549 14.5571C13.3731 14.8893 13.2558 15.2705 13.1972 15.7005C13.1386 16.1305 13.1092 16.58 13.1092 17.0491V24.1439H8.71161V9.89559Z" fill="#110C1A"/>
<path d="M33.1138 14.088C32.4688 13.2867 31.6186 12.886 30.5631 12.886C30.1918 12.886 29.8302 12.9739 29.4784 13.1498C29.1266 13.3257 28.9507 13.6287 28.9507 14.0587C28.9507 14.4105 29.1266 14.6744 29.4784 14.8503C29.8497 15.0066 30.3091 15.1532 30.8563 15.29C31.4231 15.4073 32.0192 15.5441 32.6447 15.7005C33.2897 15.8373 33.8858 16.0621 34.4331 16.3748C34.9999 16.6875 35.4592 17.1175 35.811 17.6647C36.1823 18.1925 36.368 18.9059 36.368 19.8049C36.368 20.7235 36.1628 21.4858 35.7524 22.0917C35.3615 22.678 34.8533 23.1569 34.2278 23.5283C33.6024 23.8801 32.8988 24.1244 32.117 24.2612C31.3352 24.4176 30.5631 24.4957 29.8009 24.4957C28.8041 24.4957 27.7975 24.3589 26.7812 24.0853C25.7648 23.7921 24.9049 23.2839 24.2012 22.5608L26.8691 19.5997C27.2796 20.1079 27.7291 20.4988 28.2177 20.7724C28.7259 21.0265 29.3123 21.1535 29.9768 21.1535C30.485 21.1535 30.9443 21.0851 31.3547 20.9483C31.7652 20.792 31.9704 20.5183 31.9704 20.1274C31.9704 19.7561 31.7847 19.4824 31.4134 19.3065C31.0615 19.1111 30.6022 18.9547 30.0354 18.8374C29.4882 18.7006 28.892 18.5638 28.2471 18.427C27.6216 18.2706 27.0255 18.0459 26.4587 17.7527C25.9114 17.4595 25.4521 17.0491 25.0808 16.5214C24.7289 15.9741 24.553 15.2509 24.553 14.3519C24.553 13.5114 24.7192 12.7883 25.0514 12.1824C25.4033 11.5765 25.8528 11.0781 26.4 10.6872C26.9669 10.2963 27.6118 10.0129 28.335 9.83695C29.0582 9.6415 29.7911 9.54378 30.5338 9.54378C31.472 9.54378 32.4199 9.68059 33.3776 9.95423C34.3353 10.2279 35.1465 10.7165 35.811 11.4201L33.1138 14.088Z" fill="#110C1A"/>
<path d="M48.3264 13.4137H44.4565V18.1631C44.4565 18.554 44.476 18.9156 44.5151 19.2479C44.5542 19.5606 44.6421 19.8342 44.7789 20.0688C44.9158 20.3033 45.121 20.489 45.3946 20.6258C45.6878 20.7431 46.0689 20.8017 46.538 20.8017C46.7726 20.8017 47.0755 20.7822 47.4469 20.7431C47.8378 20.6845 48.1309 20.5672 48.3264 20.3913V24.056C47.8378 24.2319 47.3296 24.3492 46.8019 24.4078C46.2741 24.4664 45.7562 24.4957 45.248 24.4957C44.5053 24.4957 43.8212 24.4176 43.1958 24.2612C42.5704 24.1048 42.0231 23.8605 41.554 23.5283C41.0849 23.1764 40.7136 22.7269 40.44 22.1797C40.1859 21.6324 40.0588 20.9679 40.0588 20.1861V13.4137H37.2443V9.89559H40.0588V5.67386H44.4565V9.89559H48.3264V13.4137Z" fill="#110C1A"/>
<path d="M67.9547 2.85949H72.3524V24.1439H67.9547V2.85949Z" fill="#110C1A"/>
<path d="M88.6687 21.6813C87.9651 22.5803 87.0758 23.2742 86.0008 23.7628C84.9258 24.2514 83.8118 24.4957 82.6586 24.4957C81.5641 24.4957 80.5283 24.3198 79.5511 23.968C78.5934 23.6162 77.7529 23.1178 77.0298 22.4728C76.3262 21.8083 75.7691 21.0167 75.3587 20.0981C74.9482 19.1795 74.743 18.1534 74.743 17.0198C74.743 15.8861 74.9482 14.86 75.3587 13.9414C75.7691 13.0228 76.3262 12.241 77.0298 11.596C77.7529 10.9315 78.5934 10.4233 79.5511 10.0715C80.5283 9.71969 81.5641 9.54378 82.6586 9.54378C83.675 9.54378 84.5936 9.71969 85.4145 10.0715C86.2549 10.4233 86.9585 10.9315 87.5254 11.596C88.1117 12.241 88.5612 13.0228 88.874 13.9414C89.1867 14.86 89.343 15.8861 89.343 17.0198V18.3977H79.1406C79.3166 19.2381 79.6977 19.9124 80.284 20.4206C80.8704 20.9092 81.5935 21.1535 82.4535 21.1535C83.1767 21.1535 83.7825 20.9972 84.2711 20.6845C84.7793 20.3522 85.219 19.932 85.5904 19.4238L88.6687 21.6813ZM84.9454 15.4073C84.9649 14.6646 84.7206 14.0294 84.2125 13.5016C83.7043 12.9739 83.0497 12.7101 82.2483 12.7101C81.7597 12.7101 81.3297 12.7883 80.9583 12.9446C80.587 13.101 80.2645 13.3062 79.9909 13.5603C79.7368 13.7948 79.5315 14.0782 79.3752 14.4105C79.2384 14.7232 79.1602 15.0555 79.1406 15.4073H84.9454Z" fill="#110C1A"/>
<path d="M91.9549 9.89559H96.3526V12.1824H96.4112C96.8803 11.3028 97.4373 10.6481 98.0823 10.2181C98.7273 9.76855 99.5384 9.54378 100.516 9.54378C100.77 9.54378 101.024 9.55355 101.278 9.5731C101.532 9.59264 101.767 9.63173 101.982 9.69037V13.7069C101.669 13.6091 101.356 13.5407 101.043 13.5016C100.75 13.443 100.438 13.4137 100.105 13.4137C99.2648 13.4137 98.6003 13.531 98.1116 13.7655C97.623 14.0001 97.2419 14.3323 96.9683 14.7623C96.7142 15.1728 96.548 15.6712 96.4699 16.2575C96.3917 16.8439 96.3526 17.4888 96.3526 18.1925V24.1439H91.9549V9.89559Z" fill="#110C1A"/>
<path d="M113.927 13.4137H110.057V18.1631C110.057 18.554 110.077 18.9156 110.116 19.2479C110.155 19.5606 110.243 19.8342 110.38 20.0688C110.516 20.3033 110.722 20.489 110.995 20.6258C111.288 20.7431 111.67 20.8017 112.139 20.8017C112.373 20.8017 112.676 20.7822 113.047 20.7431C113.438 20.6845 113.732 20.5672 113.927 20.3913V24.056C113.438 24.2319 112.93 24.3492 112.402 24.4078C111.875 24.4664 111.357 24.4957 110.849 24.4957C110.106 24.4957 109.422 24.4176 108.796 24.2612C108.171 24.1048 107.624 23.8605 107.155 23.5283C106.686 23.1764 106.314 22.7269 106.041 22.1797C105.786 21.6324 105.659 20.9679 105.659 20.1861V13.4137H102.845V9.89559H105.659V5.67386H110.057V9.89559H113.927V13.4137Z" fill="#110C1A"/>
<path fill-rule="evenodd" clip-rule="evenodd" d="M49.9531 16.5504C49.9531 20.7679 53.372 24.1868 57.5895 24.1868H65.2259V16.5504C65.2259 12.333 61.8069 8.91406 57.5895 8.91406C53.372 8.91406 49.9531 12.333 49.9531 16.5504ZM53.4531 16.5504C53.4531 18.8349 55.305 20.6868 57.5895 20.6868H61.7259V16.5504C61.7259 14.266 59.8739 12.4141 57.5895 12.4141C55.305 12.4141 53.4531 14.266 53.4531 16.5504ZM57.59 18.2976C58.5565 18.2976 59.34 17.5141 59.34 16.5476C59.34 15.5811 58.5565 14.7976 57.59 14.7976C56.6235 14.7976 55.84 15.5811 55.84 16.5476C55.84 17.5141 56.6235 18.2976 57.59 18.2976Z" fill="#EE0045"/>
</svg>
